HIERARCHY
ROOT Haolin_V1:Solving:Hips
{
	OFFSET 0.000000 0.000000 0.000000
	CHANNELS 6 Xposition Yposition Zposition Xrotation Yrotation Zrotation
	JOINT Haolin_V1:Solving:Spine
	{
		OFFSET 0.000000 -12.731938 2.520517
		CHANNELS 6 Xposition Yposition Zposition Xrotation Yrotation Zrotation
		JOINT Haolin_V1:Solving:Spine1
		{
			OFFSET 0.000000 -8.486854 1.496462
			CHANNELS 6 Xposition Yposition Zposition Xrotation Yrotation Zrotation
			JOINT Haolin_V1:Solving:Spine2
			{
				OFFSET 0.000000 -8.584984 0.751091
				CHANNELS 6 Xposition Yposition Zposition Xrotation Yrotation Zrotation
				JOINT Haolin_V1:Solving:Spine3
				{
					OFFSET 0.000000 -8.617775 0.000000
					CHANNELS 6 Xposition Yposition Zposition Xrotation Yrotation Zrotation
					JOINT Haolin_V1:Solving:Neck
					{
						OFFSET 0.000000 -11.080002 -1.107998
						CHANNELS 6 Xposition Yposition Zposition Xrotation Yrotation Zrotation
						JOINT Haolin_V1:Solving:Neck1
						{
							OFFSET 0.000000 -8.314011 -0.727381
							CHANNELS 6 Xposition Yposition Zposition Xrotation Yrotation Zrotation
							JOINT Haolin_V1:Solving:Head
							{
								OFFSET 0.000000 -8.218975 -1.449226
								CHANNELS 6 Xposition Yposition Zposition Xrotation Yrotation Zrotation
								JOINT Haolin_V1:Solving:HeadEnd
								{
									OFFSET 0.000000 -9.728081 0.000002
									CHANNELS 6 Xposition Yposition Zposition Xrotation Yrotation Zrotation
									End Site
									{
										OFFSET 0.000000 -9.728081 0.000002
									}
								}
							}
						}
					}
					JOINT Haolin_V1:Solving:RightShoulder
					{
						OFFSET 0.000000 -7.914288 -5.288076
						CHANNELS 6 Xposition Yposition Zposition Xrotation Yrotation Zrotation
						JOINT Haolin_V1:Solving:RightArm
						{
							OFFSET -20.201836 -0.000008 0.000000
							CHANNELS 6 Xposition Yposition Zposition Xrotation Yrotation Zrotation
							JOINT Haolin_V1:Solving:RightForeArm
							{
								OFFSET -29.446457 -0.000008 0.000000
								CHANNELS 6 Xposition Yposition Zposition Xrotation Yrotation Zrotation
								JOINT Haolin_V1:Solving:RightHand
								{
									OFFSET -23.111885 -0.000008 0.000000
									CHANNELS 6 Xposition Yposition Zposition Xrotation Yrotation Zrotation
									JOINT Haolin_V1:Solving:RightHandThumb1
									{
										OFFSET -3.824379 2.925484 -2.843767
										CHANNELS 6 Xposition Yposition Zposition Xrotation Yrotation Zrotation
										End Site
										{
											OFFSET -5.557076 0.000000 -5.608460
										}
									}
									JOINT Haolin_V1:Solving:RightHandMiddle1
									{
										OFFSET -10.198334 -0.000004 0.065374
										CHANNELS 6 Xposition Yposition Zposition Xrotation Yrotation Zrotation
										End Site
										{
											OFFSET -7.895309 -0.000004 0.000000
										}
									}
								}
							}
						}
					}
					JOINT Haolin_V1:Solving:LeftShoulder
					{
						OFFSET 0.000000 -7.914288 -5.288076
						CHANNELS 6 Xposition Yposition Zposition Xrotation Yrotation Zrotation
						JOINT Haolin_V1:Solving:LeftArm
						{
							OFFSET 20.201836 -0.000008 0.000000
							CHANNELS 6 Xposition Yposition Zposition Xrotation Yrotation Zrotation
							JOINT Haolin_V1:Solving:LeftForeArm
							{
								OFFSET 29.446457 -0.000008 0.000000
								CHANNELS 6 Xposition Yposition Zposition Xrotation Yrotation Zrotation
								JOINT Haolin_V1:Solving:LeftHand
								{
									OFFSET 23.111885 -0.000008 0.000000
									CHANNELS 6 Xposition Yposition Zposition Xrotation Yrotation Zrotation
									JOINT Haolin_V1:Solving:LeftHandThumb1
									{
										OFFSET 3.824379 2.925484 -2.843767
										CHANNELS 6 Xposition Yposition Zposition Xrotation Yrotation Zrotation
										End Site
										{
											OFFSET 5.557076 0.000000 -5.608460
										}
									}
									JOINT Haolin_V1:Solving:LeftHandMiddle1
									{
										OFFSET 10.198334 -0.000004 0.065374
										CHANNELS 6 Xposition Yposition Zposition Xrotation Yrotation Zrotation
										End Site
										{
											OFFSET 7.895309 -0.000004 0.000000
										}
									}
								}
							}
						}
					}
				}
			}
		}
	}
	JOINT Haolin_V1:Solving:RightUpLeg
	{
		OFFSET -10.695510 0.000000 0.000000
		CHANNELS 6 Xposition Yposition Zposition Xrotation Yrotation Zrotation
		JOINT Haolin_V1:Solving:RightLeg
		{
			OFFSET 0.000000 46.236332 -0.000006
			CHANNELS 6 Xposition Yposition Zposition Xrotation Yrotation Zrotation
			JOINT Haolin_V1:Solving:RightFoot
			{
				OFFSET 0.000000 41.248135 -0.000006
				CHANNELS 6 Xposition Yposition Zposition Xrotation Yrotation Zrotation
				JOINT Haolin_V1:Solving:RightForeFoot
				{
					OFFSET 0.000000 3.207336 -0.000000
					CHANNELS 6 Xposition Yposition Zposition Xrotation Yrotation Zrotation
					JOINT Haolin_V1:Solving:RightToeBase
					{
						OFFSET 0.000000 0.000000 -12.560947
						CHANNELS 6 Xposition Yposition Zposition Xrotation Yrotation Zrotation
						JOINT Haolin_V1:Solving:RightToeBaseEnd
						{
							OFFSET 0.000000 0.000000 -3.517768
							CHANNELS 6 Xposition Yposition Zposition Xrotation Yrotation Zrotation
							End Site
							{
								OFFSET 0.000000 -3.517769 0.000004
							}
						}
					}
				}
			}
		}
	}
	JOINT Haolin_V1:Solving:LeftUpLeg
	{
		OFFSET 10.695510 0.000000 0.000000
		CHANNELS 6 Xposition Yposition Zposition Xrotation Yrotation Zrotation
		JOINT Haolin_V1:Solving:LeftLeg
		{
			OFFSET 0.000000 46.236332 -0.000006
			CHANNELS 6 Xposition Yposition Zposition Xrotation Yrotation Zrotation
			JOINT Haolin_V1:Solving:LeftFoot
			{
				OFFSET 0.000000 41.248135 -0.000006
				CHANNELS 6 Xposition Yposition Zposition Xrotation Yrotation Zrotation
				JOINT Haolin_V1:Solving:LeftForeFoot
				{
					OFFSET 0.000000 3.207336 -0.000000
					CHANNELS 6 Xposition Yposition Zposition Xrotation Yrotation Zrotation
					JOINT Haolin_V1:Solving:LeftToeBase
					{
						OFFSET 0.000000 0.000000 -12.560947
						CHANNELS 6 Xposition Yposition Zposition Xrotation Yrotation Zrotation
						JOINT Haolin_V1:Solving:LeftToeBaseEnd
						{
							OFFSET 0.000000 0.000000 -3.901837
							CHANNELS 6 Xposition Yposition Zposition Xrotation Yrotation Zrotation
							End Site
							{
								OFFSET 0.000000 -3.901840 0.000004
							}
						}
					}
				}
			}
		}
	}
}
MOTION
Frames: 4
Frame Time: 0.041667
14.449016 -128.732727 -95.188782 87.860070 -3.562624 -1.340615 -0.000000 -12.731933 2.520538 10.756753 -0.211772 -0.977951 0.000002 -8.486817 1.496495 -0.049105 -0.115172 0.236718 -0.000002 -8.584983 0.751083 -5.989471 -0.483641 1.076204 0.000006 -8.617772 0.000021 -3.000507 -0.341671 1.216013 -0.000000 -11.080024 -1.107955 4.413744 -3.515640 -1.773587 0.000004 -8.314023 -0.727385 4.937351 -10.705152 -1.650484 0.000002 -8.218963 -1.449250 12.818077 -0.615245 -1.933933 -0.000004 -9.728081 -0.000000 -0.000001 0.000003 -0.000000 -0.000003 -7.914310 -5.288047 -0.000007 16.661338 10.124720 -20.201841 0.000030 0.000012 -1.442709 -47.599889 -88.521854 -29.446455 -0.000015 -0.000009 13.321737 -19.695035 4.562587 -23.111883 -0.000011 -0.000011 0.029112 1.196413 -1.394224 -3.824372 2.925483 -2.843744 0.000001 0.000003 -0.000000 -10.198326 -0.000022 0.065387 -0.000002 0.000001 0.000000 -0.000002 -7.914307 -5.288047 -0.000003 -11.065921 -9.882576 20.201820 0.000018 -0.000006 -11.959844 38.891087 99.459466 29.446426 0.000004 0.000016 27.275046 10.116315 -5.174629 23.111856 -0.000014 -0.000009 0.396847 2.574223 -8.767103 3.824403 2.925502 -2.843740 0.000006 -0.000007 0.000011 10.198329 0.000006 0.065386 -0.000003 -0.000003 0.000003 -10.695509 0.000009 0.000023 2.342628 13.826162 4.374948 -0.000003 46.236343 0.000001 4.787623 -0.000002 0.000000 -0.000004 41.248123 0.000041 -4.747560 -0.719168 -4.892961 -0.000002 3.207336 0.000043 0.000000 -0.000000 -0.000000 0.000004 -0.000004 -12.560970 10.080467 0.000001 -0.000000 -0.000002 -0.000000 -3.517776 -0.000000 -0.000001 -0.000000 10.695507 -0.000004 0.000014 2.275431 -15.165583 3.124663 0.000017 46.236328 -0.000033 2.461987 -0.000000 -0.000000 0.000002 41.248142 0.000047 -3.566777 -8.389461 -5.782005 -0.000002 3.207329 -0.000017 0.000000 0.000002 0.000000 -0.000007 -0.000008 -12.560990 11.321934 -0.000004 0.000001 0.000001 -0.000000 -3.901820 0.000000 0.000004 -0.000002 
14.403915 -128.685638 -95.180336 87.845604 -3.575784 -1.324756 -0.000003 -12.731951 2.520507 10.718621 -0.232307 -0.995400 -0.000003 -8.486842 1.496453 -0.050492 -0.112331 0.227441 0.000003 -8.584987 0.751074 -5.980179 -0.426621 1.056981 0.000001 -8.617785 0.000037 -2.997377 -0.324642 1.223198 0.000006 -11.079999 -1.107970 4.470360 -3.540366 -1.692863 0.000007 -8.314019 -0.727387 4.969331 -10.729113 -1.665392 0.000011 -8.218999 -1.449211 12.912590 -0.618789 -1.987492 -0.000007 -9.728088 -0.000017 0.000001 -0.000001 -0.000000 0.000001 -7.914295 -5.288077 -0.000003 16.518392 10.063797 -20.201839 -0.000032 0.000002 -1.153592 -48.493226 -87.720529 -29.446419 0.000009 0.000024 13.482956 -19.693158 4.619210 -23.111891 -0.000010 0.000007 0.041225 1.092052 -2.162211 -3.824368 2.925459 -2.843783 0.000005 0.000005 -0.000005 -10.198340 -0.000036 0.065348 -0.000004 -0.000003 0.000001 0.000002 -7.914295 -5.288077 -0.000001 -10.983952 -9.693288 20.201838 0.000020 0.000008 -11.606953 39.847385 98.802279 29.446472 -0.000004 0.000005 26.322431 10.799135 -5.295777 23.111879 -0.000005 -0.000008 0.340455 2.048424 -9.438853 3.824387 2.925510 -2.843735 0.000008 0.000009 0.000001 10.198318 -0.000010 0.065382 -0.000002 0.000002 -0.000000 -10.695509 -0.000011 0.000042 2.374887 14.165153 4.345425 -0.000002 46.236347 0.000010 4.786016 -0.000001 0.000000 0.000003 41.248158 0.000010 -4.789552 -1.039221 -4.920297 -0.000005 3.207336 0.000045 -0.000000 -0.000002 -0.000000 -0.000003 0.000004 -12.560929 10.099732 -0.000001 0.000000 -0.000001 0.000015 -3.517744 -0.000000 -0.000001 -0.000000 10.695502 -0.000004 -0.000005 2.288793 -15.130974 3.075404 0.000013 46.236324 -0.000010 2.486602 0.000001 -0.000000 0.000012 41.248138 0.000020 -3.640499 -8.417891 -5.773411 -0.000012 3.207336 -0.000004 -0.000000 0.000004 -0.000000 0.000006 0.000002 -12.560955 11.493067 0.000005 -0.000000 0.000011 0.000007 -3.901821 -0.000001 0.000004 -0.000002 
14.344209 -128.655670 -95.172142 87.855385 -3.508237 -1.337929 0.000001 -12.731930 2.520518 10.694919 -0.208566 -0.988258 -0.000001 -8.486830 1.496455 -0.051030 -0.115791 0.257642 0.000003 -8.584984 0.751101 -5.988740 -0.453586 1.059718 -0.000001 -8.617752 0.000017 -3.002030 -0.329716 1.186610 -0.000001 -11.080043 -1.108003 4.479907 -3.524158 -1.642530 -0.000001 -8.313996 -0.727351 5.014807 -10.646697 -1.681594 0.000000 -8.218998 -1.449257 13.002051 -0.615567 -2.013312 -0.000003 -9.728058 -0.000018 -0.000002 -0.000002 0.000000 -0.000002 -7.914310 -5.288064 -0.000008 16.380021 10.024984 -20.201836 -0.000011 0.000026 -0.836309 -49.554365 -86.922982 -29.446445 -0.000007 -0.000010 13.347195 -19.757065 4.585345 -23.111864 -0.000012 -0.000000 0.054941 1.194163 -2.634667 -3.824393 2.925469 -2.843767 -0.000003 -0.000003 0.000002 -10.198335 -0.000011 0.065360 -0.000005 -0.000002 -0.000001 -0.000002 -7.914307 -5.288064 -0.000005 -10.881479 -9.583370 20.201851 0.000027 -0.000002 -11.378433 40.789835 98.248071 29.446445 -0.000006 -0.000013 25.210519 11.371065 -5.303061 23.111855 -0.000019 0.000002 0.269058 1.522729 -10.021867 3.824403 2.925474 -2.843758 -0.000001 -0.000002 0.000001 10.198352 -0.000019 0.065365 -0.000006 0.000002 -0.000005 -10.695507 0.000004 0.000026 2.340734 14.269798 4.341775 -0.000002 46.236351 -0.000030 4.845220 -0.000003 0.000000 0.000000 41.248138 0.000020 -4.882841 -1.197189 -4.967255 0.000002 3.207344 0.000003 -0.000000 0.000001 0.000000 0.000003 0.000007 -12.560955 10.179079 0.000001 -0.000000 0.000001 0.000008 -3.517767 -0.000000 -0.000000 0.000000 10.695515 0.000009 0.000010 2.277287 -15.171175 3.050761 0.000003 46.236340 -0.000003 2.523016 -0.000004 -0.000000 0.000016 41.248142 0.000013 -3.676105 -8.449932 -5.771403 0.000002 3.207329 0.000002 -0.000000 -0.000002 0.000000 0.000009 -0.000002 -12.560959 11.432614 -0.000005 0.000001 -0.000001 0.000007 -3.901828 -0.000002 -0.000001 -0.000000 
14.300201 -128.608704 -95.168228 87.841881 -3.427916 -1.353437 -0.000003 -12.731937 2.520527 10.676351 -0.193028 -1.012269 -0.000000 -8.486871 1.496454 -0.056457 -0.122105 0.277404 0.000003 -8.585002 0.751097 -5.977483 -0.481903 1.074803 -0.000001 -8.617775 -0.000007 -2.999698 -0.336714 1.182490 -0.000001 -11.080031 -1.107976 4.500522 -3.492548 -1.595515 0.000003 -8.313979 -0.727362 5.024918 -10.551479 -1.697964 0.000000 -8.218944 -1.449272 13.082191 -0.609615 -2.034425 -0.000002 -9.728081 -0.000014 -0.000002 0.000003 -0.000001 -0.000003 -7.914314 -5.288069 -0.000005 16.223607 10.004896 -20.201830 0.000032 0.000024 -0.641256 -50.151508 -86.299467 -29.446438 -0.000016 -0.000015 13.393533 -19.665137 4.581318 -23.111917 -0.000022 -0.000003 0.072221 1.299522 -3.181109 -3.824358 2.925490 -2.843771 0.000000 -0.000000 -0.000003 -10.198318 0.000013 0.065363 -0.000002 -0.000002 0.000000 -0.000003 -7.914314 -5.288069 -0.000002 -10.822080 -9.559877 20.201822 -0.000004 -0.000016 -11.332644 41.436015 97.777354 29.446440 -0.000020 0.000008 23.579225 11.866707 -5.128580 23.111874 -0.000023 0.000014 0.202263 1.179060 -9.735532 3.824357 2.925462 -2.843743 0.000005 0.000012 0.000002 10.198302 -0.000034 0.065390 0.000003 0.000001 -0.000001 -10.695514 -0.000005 0.000011 2.353485 14.260162 4.339116 0.000005 46.236336 0.000009 4.887399 0.000001 -0.000000 -0.000004 41.248146 0.000050 -4.949882 -1.255106 -4.983061 0.000002 3.207336 -0.000034 0.000000 0.000000 0.000000 -0.000005 0.000001 -12.560959 10.280400 -0.000002 0.000000 -0.000002 0.000007 -3.517771 -0.000001 -0.000000 -0.000000 10.695505 -0.000006 -0.000003 2.306791 -15.237230 3.037030 0.000001 46.236320 -0.000009 2.558892 -0.000003 -0.000000 0.000003 41.248131 -0.000010 -3.706152 -8.467471 -5.787839 -0.000005 3.207336 -0.000020 -0.000000 -0.000002 0.000000 0.000004 -0.000012 -12.560973 11.503586 -0.000003 0.000000 0.000002 0.000008 -3.901839 0.000001 0.000004 -0.000001 
